<svg width="664" height="904" viewBox="0 0 664 904" fill="none" xmlns="http://www.w3.org/2000/svg">
<g opacity="0.1">
<path d="M334.108 412.36C276.325 412.36 227.132 392.575 186.528 353.005C145.924 312.914 125.622 263.973 125.622 206.18C125.622 148.387 145.924 99.7056 186.528 60.1358C227.132 20.0452 276.325 0 334.108 0C392.411 0 441.605 20.0452 481.688 60.1358C522.292 99.7056 542.594 148.387 542.594 206.18C542.594 263.973 522.292 312.914 481.688 353.005C441.605 392.575 392.411 412.36 334.108 412.36ZM334.108 287.402C357.013 287.402 375.753 279.853 390.329 264.754C405.426 249.655 412.974 230.13 412.974 206.18C412.974 182.23 405.426 162.705 390.329 147.606C375.753 132.507 357.013 124.957 334.108 124.957C311.724 124.957 292.983 132.507 277.887 147.606C263.311 162.705 256.023 182.23 256.023 206.18C256.023 230.13 263.311 249.655 277.887 264.754C292.983 279.853 311.724 287.402 334.108 287.402Z" fill="#20AFFF"/>
<path fill-rule="evenodd" clip-rule="evenodd" d="M269.189 832.204L269.189 347.579H412.757L412.757 832.204L269.189 832.204Z" fill="#20AFFF"/>
<path fill-rule="evenodd" clip-rule="evenodd" d="M179.459 437.324H484.541V562.968H179.459V437.324Z" fill="#20AFFF"/>
<path fill-rule="evenodd" clip-rule="evenodd" d="M139.789 562.968C139.789 672.011 225.845 760.407 332 760.407C438.155 760.407 524.211 672.011 524.211 562.968H664C664 751.315 515.359 904 332 904C148.641 904 0 751.315 0 562.968H139.789Z" fill="#20AFFF"/>
</g>
</svg>
